<svg viewBox="0 0 32 32" xmlns="http://www.w3.org/2000/svg">
  <circle cx="16" cy="16" r="16" fill="#25D366"/>
  <path d="M16 2C8.268 2 2 8.268 2 16c0 2.46.616 4.794 1.703 6.825L2 31l9.287-1.617C13.206 30.384 14.6 31 16 31c7.732 0 14-6.268 14-14S23.732 2 16 2zm.008 25.429c-2.103 0-4.162-.512-6.004-1.504l-.43-.245-4.457.773.787-4.33-.252-.402c-1.083-1.723-1.655-3.72-1.655-5.721 0-6.068 4.932-11 11-11s11 4.932 11 11-4.932 11-11 11z" fill="white"/>
  <path d="M22.513 19.304c-.342-.171-2.027-1.001-2.341-1.115-.315-.114-.544-.171-.773.171-.229.342-.886 1.115-1.086 1.343-.2.229-.399.257-.742.086-.342-.171-1.445-.533-2.754-1.701-1.018-.906-1.708-2.027-1.906-2.37-.2-.343-.02-.527.149-.696.153-.153.343-.399.515-.6.172-.2.229-.343.343-.572.115-.229.057-.428-.029-.6-.086-.171-.773-1.859-1.058-2.544-.279-.657-.561-.568-.772-.578-.2-.009-.428-.01-.657-.01-.229 0-.6.086-.915.428-.315.343-1.199 1.171-1.199 2.856 0 1.686 1.227 3.312 1.4 3.541.172.229 2.421 3.694 5.864 5.175.82.355 1.455.565 1.952.722.822.263 1.569.225 2.159.136.659-.098 2.027-.829 2.312-1.628.285-.8.285-1.484.2-1.627-.085-.145-.314-.229-.656-.4z" fill="white"/>
</svg>